<?xml version="1.0" standalone="no"?><!DOCTYPE svg PUBLIC "-//W3C//DTD SVG 1.1//EN" "http://www.w3.org/Graphics/SVG/1.1/DTD/svg11.dtd"><svg class="icon" width="200px" height="200.00px" viewBox="0 0 1024 1024" version="1.1" xmlns="http://www.w3.org/2000/svg"><path d="M951.53 510.304c-46.823-34.232-92.743-46.752-149.68-44.208-92.887 9.04-192.263 62.888-256.351 104.632-50.312 32.784-90.584 65.176-135.824 102.072-39.184 31.976-82.128 65.04-128.536 97.136-30.944 21.256-56.768 39.008-84.016 54.312l-7.36 4.168a1161.335 1161.335 0 0 1-22.096 12.264h707.408c47.984 0 104.376-43.712 125.048-86.368 41.256-84.968 27.576-188.256-48.592-244.008zM554.45 211.016h46.185v46.12H554.45z m-276.887 46.168h46.152v46.128h-46.152z m184.608-92.32h46.176v46.152H462.17zM84.475 831.976c22.232 0 63.688-23.704 85.984-36.28l7.584-4.272c26.584-14.784 54.224-32 84.528-52.632 20.536-14.072 42.344-30.88 61.088-45.28-9.784-4.744-17.152-4.496-26.864-9.368-62.472-31.464-126.336-78.272-197.232-73.272C45.355 614.68-0.11 657.88 0.035 715.728c0 0.024-3.472 99 84.44 116.256v-0.008z"  /><path d="M690.747 440.512V395.6h-46.152v-46.16h-46.08v-46.104h-46.176v46.152s-46.152 0-46.152-0.048v-46.104h-46.152v46.104h-46.152v-46.104h46.152v-46.152h-92.328v46.152h-46.112v46.104s-46.152 0-46.152 0.048v91.024H214.17s-23.736 175.496 110.152 252.504c22.696-17.44 44.456-34.944 65.72-52.136 44.336-35.864 92.632-72.928 144.96-106.712 45.864-29.6 104.36-63.312 171.896-86.96-0.128-3.88-16.152-6.696-16.152-6.696z m-138.408 0h-46.152V395.64h46.152v44.872z"  /></svg>